HIERARCHY
ROOT Hips
{
    OFFSET 0.000000 0.000000 0.000000
    CHANNELS 6 Xposition Yposition Zposition Zrotation Xrotation Yrotation
    JOINT Spine
    {
        OFFSET -0.000000 14.517291 0.000000
        CHANNELS 3 Zrotation Xrotation Yrotation
        JOINT Spine1
        {
            OFFSET -0.000000 37.558300 0.000000
            CHANNELS 3 Zrotation Xrotation Yrotation
            JOINT Neck
            {
                OFFSET -0.000000 37.404057 3.400369
                CHANNELS 3 Zrotation Xrotation Yrotation
                JOINT Head
                {
                    OFFSET -0.000000 24.785618 -3.540803
                    CHANNELS 3 Zrotation Xrotation Yrotation
                    End Site
                    {
                        OFFSET -0.000000 35.408028 0.000000
                    }
                }
            }
            JOINT LeftShoulder
            {
                OFFSET 6.992933 33.973492 -0.192664
                CHANNELS 3 Zrotation Xrotation Yrotation
                JOINT LeftArm
                {
                    OFFSET 21.527611 0.000000 0.000000
                    CHANNELS 3 Zrotation Xrotation Yrotation
                    JOINT LeftForeArm
                    {
                        OFFSET 56.353916 0.000000 0.000000
                        CHANNELS 3 Zrotation Xrotation Yrotation
                        JOINT LeftHand
                        {
                            OFFSET 47.774071 0.000000 0.000000
                            CHANNELS 3 Zrotation Xrotation Yrotation
                            End Site
                            {
                                OFFSET 26.556021 0.000000 0.000000
                            }
                        }
                    }
                }
            }
            JOINT RightShoulder
            {
                OFFSET -7.065357 33.973492 -0.192664
                CHANNELS 3 Zrotation Xrotation Yrotation
                JOINT RightArm
                {
                    OFFSET -21.527611 0.000000 0.000000
                    CHANNELS 3 Zrotation Xrotation Yrotation
                    JOINT RightForeArm
                    {
                        OFFSET -56.353916 0.000000 0.000000
                        CHANNELS 3 Zrotation Xrotation Yrotation
                        JOINT RightHand
                        {
                            OFFSET -47.774071 0.000000 0.000000
                            CHANNELS 3 Zrotation Xrotation Yrotation
                            End Site
                            {
                                OFFSET -26.556021 0.000000 0.000000
                            }
                        }
                    }
                }
            }
        }
    }
    JOINT LeftUpLeg
    {
        OFFSET 17.704014 0.000000 0.000000
        CHANNELS 3 Zrotation Xrotation Yrotation
        JOINT LeftLeg
        {
            OFFSET -0.000000 -81.181816 0.000000
            CHANNELS 3 Zrotation Xrotation Yrotation
            JOINT LeftFoot
            {
                OFFSET -0.000000 -62.821102 0.000000
                CHANNELS 3 Zrotation Xrotation Yrotation
                JOINT LeftToeBase
                {
                    OFFSET -0.000000 -11.507608 26.556021
                    CHANNELS 3 Zrotation Xrotation Yrotation
                    End Site
                    {
                        OFFSET -0.000000 0.000000 7.081605
                    }
                }
            }
        }
    }
    JOINT RightUpLeg
    {
        OFFSET -17.704014 0.000000 0.000000
        CHANNELS 3 Zrotation Xrotation Yrotation
        JOINT RightLeg
        {
            OFFSET -0.000000 -81.181816 0.000000
            CHANNELS 3 Zrotation Xrotation Yrotation
            JOINT RightFoot
            {
                OFFSET -0.000000 -62.821102 0.000000
                CHANNELS 3 Zrotation Xrotation Yrotation
                JOINT RightToeBase
                {
                    OFFSET -0.000000 -11.507608 26.556021
                    CHANNELS 3 Zrotation Xrotation Yrotation
                    End Site
                    {
                        OFFSET -0.000000 0.000000 7.081605
                    }
                }
            }
        }
    }
}
MOTION
Frames:    11
Frame Time:    0.008333
25.901592    156.120132    -36.152798    0.850744    -0.687065    -42.816929    2.594512    -1.457570    3.178793    0.274474    1.820759    1.043098    15.111295    -2.090852    13.659386    -7.872059    9.317745    11.210752    4.195495    6.528860    -15.639651    -24.632174    -4.159886    -46.772270    25.460247    -44.286228    -49.499271    -20.050598    -30.168371    -32.188915    -6.065348    4.737089    1.086660    34.808792    10.438804    81.744537    1.485630    -18.595324    96.151108    14.813054    -16.912121    25.859804    17.096378    -19.979515    3.461194    -11.437024    18.067661    -4.194303    -8.492872    0.973127    37.807701    0.000000    0.000000    0.000000    -15.267097    1.831382    -7.519069    6.946443    27.633162    -2.301307    4.863661    -21.735758    -17.776171    0.000000    0.000000    0.000000    
25.903559    156.125183    -36.138611    0.856761    -0.691709    -42.828552    2.566086    -1.468815    3.152816    0.303800    1.829728    1.033987    15.096519    -2.086783    13.652156    -7.852699    9.328837    11.208195    4.191324    6.515266    -15.645439    -24.616909    -4.187833    -46.713959    25.456720    -44.276371    -49.462894    -20.051180    -30.167831    -32.181171    -6.035761    4.750888    1.069795    34.900764    10.487045    81.712158    1.179430    -18.832060    95.907288    14.844612    -16.810352    25.876198    17.084116    -19.967609    3.466758    -11.432542    18.058395    -4.195954    -8.486417    0.973588    37.809814    0.000000    0.000000    0.000000    -15.274774    1.835156    -7.525767    6.930275    27.621086    -2.280090    4.856018    -21.730532    -17.772152    0.000000    0.000000    0.000000    
25.902601    156.125671    -36.126411    0.862550    -0.690819    -42.843105    2.533126    -1.490154    3.121786    0.353352    1.845272    1.022746    15.061565    -2.083418    13.646964    -7.827053    9.338175    11.211363    4.164046    6.511075    -15.634304    -24.588478    -4.216918    -46.673092    25.463127    -44.271935    -49.400829    -20.060802    -30.172319    -32.180225    -6.030727    4.785387    1.073083    34.979885    10.513809    81.694199    0.936999    -19.065708    95.687782    14.909798    -16.770966    25.877436    17.084757    -19.964117    3.475734    -11.434494    18.062368    -4.215971    -8.486662    0.961643    37.829876    0.000000    0.000000    0.000000    -15.283269    1.838085    -7.516370    6.932106    27.601147    -2.294055    4.860384    -21.722416    -17.748564    0.000000    0.000000    0.000000    
25.901667    156.128632    -36.115307    0.866030    -0.694088    -42.867126    2.507645    -1.510944    3.102996    0.377115    1.868787    1.015922    15.052829    -2.087860    13.640049    -7.808558    9.362543    11.207833    4.171268    6.500924    -15.632565    -24.579479    -4.243013    -46.632767    25.461422    -44.271729    -49.355080    -20.053837    -30.186981    -32.171196    -6.000887    4.809252    1.067730    35.030228    10.537846    81.677582    0.798929    -19.258850    95.511383    14.940742    -16.810104    25.885283    17.083900    -19.953939    3.500950    -11.431353    18.071356    -4.194904    -8.489002    0.953552    37.799908    0.000000    0.000000    0.000000    -15.287902    1.835200    -7.508022    6.922491    27.594137    -2.285466    4.859248    -21.714931    -17.751028    0.000000    0.000000    0.000000    
25.904829    156.131195    -36.105530    0.871618    -0.695397    -42.891193    2.490678    -1.403701    2.987674    0.395566    1.712710    0.978616    15.014874    -2.097973    13.688878    -7.763846    9.451943    11.272771    4.133749    6.519503    -15.408273    -24.586748    -4.213443    -46.640915    25.419018    -44.253540    -49.384544    -20.039074    -30.185734    -32.134708    -6.008655    4.862316    1.152151    35.128670    10.576287    81.683922    0.833600    -19.336550    95.422096    14.981492    -16.914511    25.888649    17.079401    -19.949814    3.519604    -11.427069    18.079491    -4.174181    -8.470202    0.958847    37.784931    0.000000    0.000000    0.000000    -15.296484    1.826832    -7.516776    6.900450    27.592678    -2.268319    4.888603    -21.710806    -17.721970    0.000000    0.000000    0.000000    
25.906731    156.131607    -36.094238    0.877725    -0.700260    -42.922024    2.464071    -1.413177    2.977096    0.430184    1.724669    0.974588    14.983018    -2.095975    13.676331    -7.743204    9.456434    11.266883    4.124532    6.516152    -15.403563    -24.582510    -4.251204    -46.603306    25.391741    -44.235596    -49.363781    -20.037376    -30.180191    -32.139095    -6.001839    4.883151    1.136273    35.146362    10.601239    81.672577    0.887793    -19.469311    95.339310    15.060938    -17.079174    25.945211    17.076090    -19.943005    3.528152    -11.429649    18.090073    -4.170209    -8.474975    0.939288    37.810905    0.000000    0.000000    0.000000    -15.311372    1.865485    -7.490443    6.913304    27.493069    -2.254835    4.858369    -21.708511    -17.721920    0.000000    0.000000    0.000000    
25.912380    156.130371    -36.083870    0.884006    -0.695643    -42.954170    2.465191    -1.427637    2.969436    0.425542    1.742070    0.971911    14.978350    -2.091225    13.675037    -7.740855    9.445086    11.266309    4.132459    6.505609    -15.394643    -24.556564    -4.254656    -46.568375    25.404352    -44.244785    -49.315662    -20.033625    -30.198513    -32.138226    -5.975106    4.897660    1.124701    35.149452    10.618942    81.665970    0.958073    -19.566393    95.270821    15.042130    -17.254375    25.946028    17.082500    -19.941517    3.530985    -11.439700    18.095552    -4.147387    -8.460369    0.926056    37.813793    0.000000    0.000000    0.000000    -15.318879    1.849282    -7.495858    6.901611    27.492262    -2.248709    4.852468    -21.700994    -17.700083    0.000000    0.000000    0.000000    
25.913460    156.129196    -36.073704    0.883697    -0.699635    -42.989243    2.452864    -1.423392    2.964432    0.437249    1.743910    0.970134    14.984034    -2.081339    13.671293    -7.757764    9.438969    11.261362    4.134416    6.506913    -15.388469    -24.544144    -4.279918    -46.533161    25.390509    -44.231560    -49.303265    -20.021751    -30.195944    -32.128914    -5.948963    4.898396    1.126339    35.118896    10.644983    81.634796    1.034453    -19.652075    95.225426    14.986199    -17.442118    25.875828    17.089163    -19.932999    3.545440    -11.451993    18.115139    -4.115891    -8.445444    0.912946    37.811180    0.000000    0.000000    0.000000    -15.328959    1.842510    -7.476815    6.900812    27.492638    -2.239313    4.847861    -21.697706    -17.698744    0.000000    0.000000    0.000000    
25.917015    156.127411    -36.061928    0.887281    -0.700133    -43.023533    2.452296    -1.432650    2.960698    0.432994    1.760705    0.968829    14.991722    -2.055927    13.666183    -7.776322    9.401690    11.254453    4.153439    6.515236    -15.376076    -24.527803    -4.285067    -46.515198    25.438427    -44.235416    -49.239285    -20.050449    -30.184032    -32.154324    -5.930796    4.910395    1.127073    35.108269    10.643567    81.616516    1.121019    -19.676046    95.174828    14.909788    -17.579002    25.828688    17.096682    -19.925453    3.540919    -11.462093    18.125320    -4.123465    -8.433476    0.898828    37.830765    0.000000    0.000000    0.000000    -15.341523    1.831114    -7.465951    6.900765    27.493750    -2.225962    4.855334    -21.698774    -17.695637    0.000000    0.000000    0.000000    
25.920635    156.127518    -36.052029    0.887838    -0.697261    -43.063999    2.446313    -1.432442    2.964523    0.450914    1.768236    0.969814    14.984318    -2.061794    13.666689    -7.787446    9.403492    11.254918    4.142691    6.514513    -15.374392    -24.500080    -4.285169    -46.478405    25.481819    -44.233944    -49.197346    -20.056541    -30.171310    -32.160969    -5.928065    4.911529    1.113729    35.096825    10.646811    81.601601    1.189227    -19.662762    95.124626    14.798881    -17.665485    25.788643    17.107405    -19.916557    3.549245    -11.474840    18.132372    -4.088715    -8.423270    0.885048    37.835548    0.000000    0.000000    0.000000    -15.345807    1.817572    -7.466846    6.884010    27.489643    -2.215772    4.864758    -21.685158    -17.653975    0.000000    0.000000    0.000000    
25.925203    156.129059    -36.040260    0.891064    -0.699773    -43.096031    2.439957    -1.423069    2.966449    0.452563    1.759730    0.970530    15.007984    -2.038319    13.669968    -7.828635    9.381361    11.253505    4.154938    6.539420    -15.373297    -24.496489    -4.320965    -46.460445    25.478006    -44.221764    -49.193611    -20.054893    -30.156195    -32.181225    -5.920510    4.914120    1.103516    35.078262    10.656183    81.578255    1.207176    -19.660288    95.061958    14.737142    -17.695745    25.775265    17.109180    -19.903839    3.543951    -11.482119    18.130198    -4.058253    -8.414912    0.875004    37.827797    0.000000    0.000000    0.000000    -15.356629    1.808016    -7.466777    6.865793    27.493258    -2.208126    4.897892    -21.682100    -17.618332    0.000000    0.000000    0.000000    
